<mxfile host="app.diagrams.net" modified="2023-04-30T08:48:18.767Z" agent="Mozilla/5.0 (Windows NT 10.0; Win64; x64) AppleWebKit/537.36 (KHTML, like Gecko) Chrome/112.0.5615.138 Safari/537.36" etag="UoxqaU7CHjtueG7c2uus" version="21.2.3" type="device">
  <diagram name="Page-1" id="jfzW4A5JX8lO9AgdpyWm">
    <mxGraphModel dx="1050" dy="548" grid="1" gridSize="10" guides="1" tooltips="1" connect="1" arrows="1" fold="1" page="1" pageScale="1" pageWidth="850" pageHeight="1100" math="0" shadow="0">
      <root>
        <mxCell id="0" />
        <mxCell id="1" parent="0" />
        <mxCell id="fsZjgsSW4qBwlraWYcr6-3" value="" style="edgeStyle=orthogonalEdgeStyle;rounded=0;orthogonalLoop=1;jettySize=auto;html=1;" edge="1" parent="1" source="fsZjgsSW4qBwlraWYcr6-1">
          <mxGeometry relative="1" as="geometry">
            <mxPoint x="285" y="70" as="targetPoint" />
          </mxGeometry>
        </mxCell>
        <mxCell id="fsZjgsSW4qBwlraWYcr6-1" value="&lt;font face=&quot;Times New Roman&quot; style=&quot;font-size: 14px;&quot;&gt;Початок&lt;/font&gt;" style="rounded=1;whiteSpace=wrap;html=1;" vertex="1" parent="1">
          <mxGeometry x="225" y="10" width="120" height="40" as="geometry" />
        </mxCell>
        <mxCell id="fsZjgsSW4qBwlraWYcr6-6" value="" style="edgeStyle=orthogonalEdgeStyle;rounded=0;orthogonalLoop=1;jettySize=auto;html=1;" edge="1" parent="1" source="fsZjgsSW4qBwlraWYcr6-4" target="fsZjgsSW4qBwlraWYcr6-5">
          <mxGeometry relative="1" as="geometry" />
        </mxCell>
        <mxCell id="fsZjgsSW4qBwlraWYcr6-4" value="Створення об&#39;єкта класа з вхідним зображення" style="rounded=0;whiteSpace=wrap;html=1;" vertex="1" parent="1">
          <mxGeometry x="215" y="70" width="140" height="60" as="geometry" />
        </mxCell>
        <mxCell id="fsZjgsSW4qBwlraWYcr6-8" value="" style="edgeStyle=orthogonalEdgeStyle;rounded=0;orthogonalLoop=1;jettySize=auto;html=1;" edge="1" parent="1" source="fsZjgsSW4qBwlraWYcr6-5" target="fsZjgsSW4qBwlraWYcr6-7">
          <mxGeometry relative="1" as="geometry" />
        </mxCell>
        <mxCell id="fsZjgsSW4qBwlraWYcr6-5" value="Зчитування ширини та виоти" style="whiteSpace=wrap;html=1;rounded=0;" vertex="1" parent="1">
          <mxGeometry x="225" y="150" width="120" height="50" as="geometry" />
        </mxCell>
        <mxCell id="fsZjgsSW4qBwlraWYcr6-7" value="Вставка ширини &lt;br&gt;та висоти у вихідний масив" style="whiteSpace=wrap;html=1;rounded=0;" vertex="1" parent="1">
          <mxGeometry x="220" y="220" width="130" height="60" as="geometry" />
        </mxCell>
        <mxCell id="fsZjgsSW4qBwlraWYcr6-13" value="" style="edgeStyle=orthogonalEdgeStyle;rounded=0;orthogonalLoop=1;jettySize=auto;html=1;" edge="1" parent="1" source="fsZjgsSW4qBwlraWYcr6-11" target="fsZjgsSW4qBwlraWYcr6-12">
          <mxGeometry relative="1" as="geometry" />
        </mxCell>
        <mxCell id="fsZjgsSW4qBwlraWYcr6-27" style="edgeStyle=orthogonalEdgeStyle;rounded=0;orthogonalLoop=1;jettySize=auto;html=1;exitX=1;exitY=0.5;exitDx=0;exitDy=0;entryX=1;entryY=0.5;entryDx=0;entryDy=0;" edge="1" parent="1" source="fsZjgsSW4qBwlraWYcr6-11" target="fsZjgsSW4qBwlraWYcr6-23">
          <mxGeometry relative="1" as="geometry">
            <Array as="points">
              <mxPoint x="470" y="310" />
              <mxPoint x="470" y="610" />
            </Array>
          </mxGeometry>
        </mxCell>
        <mxCell id="fsZjgsSW4qBwlraWYcr6-11" value="&lt;font style=&quot;font-size: 14px;&quot; face=&quot;Times New Roman&quot;&gt;x = 1, img_height, 1&lt;/font&gt;" style="shape=hexagon;perimeter=hexagonPerimeter2;whiteSpace=wrap;html=1;fixedSize=1;size=40;" vertex="1" parent="1">
          <mxGeometry x="200" y="290" width="170" height="40" as="geometry" />
        </mxCell>
        <mxCell id="fsZjgsSW4qBwlraWYcr6-17" value="" style="edgeStyle=orthogonalEdgeStyle;rounded=0;orthogonalLoop=1;jettySize=auto;html=1;" edge="1" parent="1" source="fsZjgsSW4qBwlraWYcr6-12" target="fsZjgsSW4qBwlraWYcr6-16">
          <mxGeometry relative="1" as="geometry" />
        </mxCell>
        <mxCell id="fsZjgsSW4qBwlraWYcr6-26" style="edgeStyle=orthogonalEdgeStyle;rounded=0;orthogonalLoop=1;jettySize=auto;html=1;exitX=0;exitY=0.5;exitDx=0;exitDy=0;entryX=0;entryY=0.5;entryDx=0;entryDy=0;" edge="1" parent="1" source="fsZjgsSW4qBwlraWYcr6-12" target="fsZjgsSW4qBwlraWYcr6-11">
          <mxGeometry relative="1" as="geometry">
            <Array as="points">
              <mxPoint x="150" y="370" />
              <mxPoint x="150" y="310" />
            </Array>
          </mxGeometry>
        </mxCell>
        <mxCell id="fsZjgsSW4qBwlraWYcr6-12" value="&lt;font style=&quot;font-size: 14px;&quot; face=&quot;Times New Roman&quot;&gt;y = 1, img_width, 1&lt;/font&gt;" style="shape=hexagon;perimeter=hexagonPerimeter2;whiteSpace=wrap;html=1;fixedSize=1;size=40;" vertex="1" parent="1">
          <mxGeometry x="200" y="350" width="170" height="40" as="geometry" />
        </mxCell>
        <mxCell id="fsZjgsSW4qBwlraWYcr6-19" value="" style="edgeStyle=orthogonalEdgeStyle;rounded=0;orthogonalLoop=1;jettySize=auto;html=1;" edge="1" parent="1" source="fsZjgsSW4qBwlraWYcr6-16" target="fsZjgsSW4qBwlraWYcr6-18">
          <mxGeometry relative="1" as="geometry" />
        </mxCell>
        <mxCell id="fsZjgsSW4qBwlraWYcr6-16" value="Зчитування кольору&amp;nbsp;" style="rounded=0;whiteSpace=wrap;html=1;" vertex="1" parent="1">
          <mxGeometry x="220" y="410" width="130" height="40" as="geometry" />
        </mxCell>
        <mxCell id="fsZjgsSW4qBwlraWYcr6-21" value="" style="edgeStyle=orthogonalEdgeStyle;rounded=0;orthogonalLoop=1;jettySize=auto;html=1;" edge="1" parent="1" source="fsZjgsSW4qBwlraWYcr6-18" target="fsZjgsSW4qBwlraWYcr6-20">
          <mxGeometry relative="1" as="geometry" />
        </mxCell>
        <mxCell id="fsZjgsSW4qBwlraWYcr6-18" value="Конвертація r, g, b в одне число" style="whiteSpace=wrap;html=1;rounded=0;" vertex="1" parent="1">
          <mxGeometry x="220" y="470" width="130" height="40" as="geometry" />
        </mxCell>
        <mxCell id="fsZjgsSW4qBwlraWYcr6-25" style="edgeStyle=orthogonalEdgeStyle;rounded=0;orthogonalLoop=1;jettySize=auto;html=1;exitX=1;exitY=0.5;exitDx=0;exitDy=0;entryX=1;entryY=0.5;entryDx=0;entryDy=0;" edge="1" parent="1" source="fsZjgsSW4qBwlraWYcr6-20" target="fsZjgsSW4qBwlraWYcr6-12">
          <mxGeometry relative="1" as="geometry">
            <Array as="points">
              <mxPoint x="420" y="550" />
              <mxPoint x="420" y="370" />
            </Array>
          </mxGeometry>
        </mxCell>
        <mxCell id="fsZjgsSW4qBwlraWYcr6-20" value="вставка клольору в масив" style="whiteSpace=wrap;html=1;rounded=0;" vertex="1" parent="1">
          <mxGeometry x="220" y="530" width="130" height="40" as="geometry" />
        </mxCell>
        <mxCell id="fsZjgsSW4qBwlraWYcr6-23" value="&lt;font face=&quot;Times New Roman&quot; style=&quot;font-size: 14px;&quot;&gt;Кінець&lt;/font&gt;" style="rounded=1;whiteSpace=wrap;html=1;" vertex="1" parent="1">
          <mxGeometry x="225" y="590" width="120" height="40" as="geometry" />
        </mxCell>
        <mxCell id="fsZjgsSW4qBwlraWYcr6-28" value="&lt;font face=&quot;Times New Roman&quot; style=&quot;font-size: 14px;&quot;&gt;Ні&lt;/font&gt;" style="text;html=1;strokeColor=none;fillColor=none;align=center;verticalAlign=middle;whiteSpace=wrap;rounded=0;" vertex="1" parent="1">
          <mxGeometry x="160" y="340" width="60" height="30" as="geometry" />
        </mxCell>
        <mxCell id="fsZjgsSW4qBwlraWYcr6-29" value="&lt;font face=&quot;Times New Roman&quot; style=&quot;font-size: 14px;&quot;&gt;Ні&lt;/font&gt;" style="text;html=1;strokeColor=none;fillColor=none;align=center;verticalAlign=middle;whiteSpace=wrap;rounded=0;" vertex="1" parent="1">
          <mxGeometry x="354" y="285" width="60" height="30" as="geometry" />
        </mxCell>
        <mxCell id="fsZjgsSW4qBwlraWYcr6-30" value="&lt;font face=&quot;Times New Roman&quot; style=&quot;font-size: 14px;&quot;&gt;Так&lt;/font&gt;" style="text;html=1;strokeColor=none;fillColor=none;align=center;verticalAlign=middle;whiteSpace=wrap;rounded=0;" vertex="1" parent="1">
          <mxGeometry x="355" y="340" width="60" height="30" as="geometry" />
        </mxCell>
        <mxCell id="fsZjgsSW4qBwlraWYcr6-31" value="&lt;font face=&quot;Times New Roman&quot; style=&quot;font-size: 14px;&quot;&gt;Так&lt;/font&gt;" style="text;html=1;strokeColor=none;fillColor=none;align=center;verticalAlign=middle;whiteSpace=wrap;rounded=0;" vertex="1" parent="1">
          <mxGeometry x="150" y="280" width="60" height="30" as="geometry" />
        </mxCell>
      </root>
    </mxGraphModel>
  </diagram>
</mxfile>
